<?xml version="1.0" encoding="utf-8"?>
<!-- Generator: Adobe Illustrator 23.0.3, SVG Export Plug-In . SVG Version: 6.00 Build 0)  -->
<svg version="1.1" id="Capa_1" xmlns="http://www.w3.org/2000/svg" xmlns:xlink="http://www.w3.org/1999/xlink" x="0px" y="0px"
	 viewBox="0 0 204.3 50.1" style="enable-background:new 0 0 204.3 50.1;" xml:space="preserve">
<style type="text/css">
	.st0{fill:#FFFFFF;}
	.st1{font-family:'DINAlternate-Bold';}
	.st2{font-size:44.2163px;}
</style>
<g>
	<g>
		<path class="st0" d="M26.5,44c-0.4,0-0.8-0.2-1-0.5c-0.4-0.5-0.2-1.3,0.3-1.7l18.3-12.1c0.5-0.4,1.3-0.2,1.7,0.3
			c0.4,0.5,0.2,1.3-0.3,1.7L27.2,43.8C27,44,26.7,44,26.5,44z"/>
	</g>
	<g>
		<path class="st0" d="M4.6,37.8c-0.3,0-0.5-0.1-0.7-0.2c-0.4-0.3-0.6-0.9-0.4-1.5c0.1-0.3,3.2-6.7,8.1-13.8
			c6.7-9.6,13.5-15.6,20.1-17.7c4.6-1.4,9.1-1,13.2,1.4c3.2,1.8,4.8,4.2,4.7,7c-0.1,4.4-4.5,9.6-13,15.5c-6.1,4.3-12.4,7.4-12.4,7.5
			c-0.6,0.3-1.3,0.1-1.6-0.5s-0.1-1.3,0.5-1.6c6.6-3.4,23.9-13.7,24.1-21c0-1.9-1.1-3.5-3.5-4.9C40.2,6.1,36.3,5.7,32.4,7
			C22.1,10.2,13.1,23.8,8.6,31.6l15-13c0.5-0.4,1.2-0.4,1.7,0.1c0.4,0.5,0.4,1.2-0.1,1.7L5.4,37.5C5.1,37.7,4.9,37.8,4.6,37.8z"/>
	</g>
	<g>
		<path class="st0" d="M1.2,44.7c-0.4,0-0.8-0.2-1-0.6c-0.3-0.6-0.2-1.3,0.4-1.6C4.2,40.3,39.6,14.4,40,14.1
			c0.1-0.1,0.3-0.2,0.5-0.2l8-1.5l-0.4-0.1c-0.6-0.2-1-0.9-0.8-1.5c0.2-0.6,0.9-1,1.5-0.8l4.9,1.6c0.5,0.2,0.9,0.7,0.8,1.2
			c0,0.5-0.4,1-1,1.1l-12.4,2.3C37.9,18.6,5.4,42.4,1.8,44.6C1.6,44.7,1.4,44.7,1.2,44.7z"/>
	</g>
	<g>
		<path class="st0" d="M33.7,38c-0.3,0-0.5-0.1-0.7-0.3c-1-0.8-3.6-2.6-6.7-2c-0.6,0.1-1.2,0.3-1.8,0.6c-0.6,0.3-1.3,0.1-1.6-0.5
			c-0.3-0.6-0.1-1.3,0.5-1.6c0.8-0.4,1.6-0.7,2.4-0.8c4-0.7,7.3,1.5,8.6,2.5c0.5,0.4,0.6,1.2,0.2,1.7C34.4,37.8,34,38,33.7,38z"/>
	</g>
	<g>
		<path class="st0" d="M39.5,16.1c-2.1,0-3.9-1.7-3.9-3.9s1.7-3.9,3.9-3.9s3.9,1.7,3.9,3.9S41.6,16.1,39.5,16.1z M39.5,10.8
			c-0.8,0-1.5,0.7-1.5,1.5s0.7,1.5,1.5,1.5s1.5-0.7,1.5-1.5S40.3,10.8,39.5,10.8z"/>
	</g>
	<g>
		<path class="st0" d="M38.5,35.5c-0.3,0-0.5-0.1-0.7-0.3c-1-0.8-3.6-2.6-6.7-2c-0.6,0.1-1.2,0.3-1.8,0.6c-0.6,0.3-1.3,0.1-1.6-0.5
			c-0.3-0.6-0.1-1.3,0.5-1.6c0.8-0.4,1.6-0.7,2.4-0.8c4-0.7,7.3,1.5,8.6,2.5c0.5,0.4,0.6,1.2,0.2,1.7C39.2,35.3,38.9,35.5,38.5,35.5
			z"/>
	</g>
</g>
<text transform="matrix(1 0 0 1 61.8606 37.9762)" class="st0 st1 st2">Canario</text>
</svg>
